<?xml version="1.0" encoding="utf-8"?>
<!-- Generator: Adobe Illustrator 18.1.1, SVG Export Plug-In . SVG Version: 6.00 Build 0)  -->
<svg version="1.1" id="Слой_1" xmlns="http://www.w3.org/2000/svg" xmlns:xlink="http://www.w3.org/1999/xlink" x="0px" y="0px"
	 viewBox="0 0 198 44.4" enable-background="new 0 0 198 44.4" xml:space="preserve">
<path fill="#FFFFFF" d="M174.4,11.9h-11.7v19.6v0.3h0.1c0.1,1.6,0.3,3,0.7,4.2c0.6,2.2,1.7,3.9,3.4,5.4c1.4,1.2,2.9,2,4.6,2.5
	c1.4,0.4,3.3,0.6,5.5,0.6h11.8c1.4,0,2.4-0.1,3.1-0.2c1.3-0.2,2.5-0.8,3.5-1.6c1.1-0.9,1.9-2.1,2.3-3.6c0.2-0.8,0.3-1.8,0.3-2.9
	V11.9h-11.6V24h0v3.2h0l0,8.2c-0.1,0.1-0.3,0.1-0.6,0.1h-6.2c-0.5,0-0.9,0-1.3,0c-0.7,0-1.2-0.1-1.6-0.3c-0.6-0.2-1.1-0.5-1.4-1
	c-0.3-0.4-0.5-0.9-0.6-1.5c-0.1-0.4-0.2-1-0.2-1.6h0V11.9z"/>
<rect x="47.9" y="0.2" fill="#FFFFFF" width="11.7" height="44.2"/>
<rect x="118.3" y="33.1" fill="#FFFFFF" width="12" height="11.3"/>
<rect x="31.1" y="12" fill="#FFFFFF" width="11.7" height="32.4"/>
<rect x="31.1" y="0.2" fill="#FFFFFF" width="11.7" height="8.2"/>
<path fill="#FFFFFF" d="M7.6,5.5L7.3,6C6.8,6.9,6.2,8.3,6,9.2C5.7,10.3,5.6,12,5.6,12H0v9h5.3v23.4H17V21h9v-9h-8.7c0,0,0-0.5,0-1.1
	c0-1.6,1.5-2.2,2.4-2.3c0.9-0.1,2.3-0.2,4.3-0.2h2V0.1L22.7,0c-2.4,0-4.7,0.2-6.6,0.6c-2.2,0.4-4,1.1-5.3,1.9C10.3,2.7,10,3,9.6,3.3
	C8.8,4,8.1,4.8,7.6,5.5"/>
<path fill="#FFFFFF" d="M70.7,12.1c-0.3,0.1-0.7,0.2-1,0.3c-0.7,0.2-1.3,0.5-1.8,0.8c-0.7,0.4-1.3,1-1.8,1.7c-0.8,1.3-1.3,3-1.3,5.1
	v24.4h11.7V21h6.7v23.4h11.6V21H98c0.6,0,1,0,1.4,0.1c0.5,0.1,0.9,0.4,1.1,0.7c0.3,0.3,0.6,0.8,0.7,1.5c0.2,0.6,0.3,1.2,0.2,1.9
	v19.2h11.7V25.2c0-2-0.3-3.9-1-5.6c-0.5-1.3-1.1-2.5-1.9-3.5c-0.3-0.4-0.6-0.7-0.9-1l0,0c-0.4-0.4-0.9-0.7-1.3-1
	c-2.2-1.5-5.1-2.2-8.6-2.3H72.9C72.1,11.9,71.3,11.9,70.7,12.1L70.7,12.1z"/>
<path fill="#FFFFFF" d="M157.6,11.9h-6.5c-2.1,0-3.9,0.2-5.3,0.5c-2.2,0.4-4.1,1.3-5.7,2.6c-0.2,0.1-0.3,0.3-0.5,0.4
	c-0.5,0.4-1,0.9-1.3,1.4c-1,1.2-1.7,2.6-2.1,4.1c-0.5,1.7-0.8,3.8-0.8,6.1v17.4h11.7V26.9c0-2,0.5-3.4,1.3-4.3c0.5-0.6,1.2-1,2-1.2
	c0.7-0.2,1.6-0.3,2.7-0.3h4.6V11.9z"/>
</svg>
