<?xml version="1.0" encoding="utf-8"?>
<!-- Generator: Adobe Illustrator 18.1.1, SVG Export Plug-In . SVG Version: 6.00 Build 0)  -->
<svg version="1.1" id="Слой_1" xmlns="http://www.w3.org/2000/svg" xmlns:xlink="http://www.w3.org/1999/xlink" x="0px" y="0px"
	 viewBox="-12.1 3146.4 10051 3386.5" enable-background="new -12.1 3146.4 10051 3386.5" xml:space="preserve">
<g>
	<g>
		<g>
			<g>
				<path fill="none" stroke="#29FD2F" stroke-width="26" stroke-miterlimit="10" d="M9304.9,6110.5c2.4,77.3,16.5,147.7,43.9,206
					c31,66.8,72.5,116.7,128.4,150.1c55.9,33.4,116.7,49.9,186.8,49.9c69.2,0,130.8-16.5,186.8-49.9s97.8-83.3,128.4-150.1
					c27.4-58.3,41.8-128.4,43.9-206h-231c-2.4,69.2-14.1,122.7-33.4,155.8c-22.6,39.4-52.3,58.3-91.7,58.3
					c-39.4,0-69.2-18.9-95.3-58.3c-18.9-33.4-31-85.7-33.4-155.8H9304.9z M8856.1,6110.5l-253.5,245.1v147.7h634.6v-189.2h-314.3
					l153.7-145.3c22.6-18.9,39.4-39.4,55.9-58.3L8856.1,6110.5L8856.1,6110.5z M7818.2,6110.5c2.4,77.3,16.5,147.7,43.9,206
					c31,66.8,72.5,116.7,128.4,150.1c55.9,33.4,116.7,49.9,186.8,49.9c69.2,0,130.8-16.5,186.8-49.9s97.8-83.3,128.4-150.1
					c27.4-58.3,41.8-128.4,43.9-206h-231c-2.4,69.2-14.1,122.7-33.4,155.8c-22.6,39.4-52.3,58.3-91.7,58.3s-69.2-18.9-95.3-58.3
					c-18.9-33.4-31-85.7-33.4-155.8H7818.2z M7369.4,6110.5l-253.5,245.1v147.7h634.6v-189.2h-314.3l153.7-145.3
					c22.6-18.9,39.4-39.4,55.9-58.3L7369.4,6110.5L7369.4,6110.5z M6042.2,6110.5v392.8h654.8v-183.5h-426.2v-153.7h361.8v-55.9
					L6042.2,6110.5L6042.2,6110.5z M5139.8,6110.5c2.4,72.5,22.6,139.3,55.9,197.6c39.4,66.8,91.7,116.7,161.8,155.8
					c66.8,35.8,145.3,55.9,231,55.9c74.9,0,141.7-14.1,200-41.8c60.8-27.4,108.3-66.8,150.1-116.7L5791,6224.5
					c-52.3,66.8-116.7,97.8-191.6,97.8c-43.9,0-83.3-10.8-120.3-31c-33.4-18.9-60.8-47.5-80.9-83.3c-16.5-27.4-25-60.8-27.4-97.8
					h-231V6110.5z M4549.4,6160.5h181.1c66.8,0,99.9,27.4,99.9,85.7c0,58.3-33.4,85.7-99.9,85.7h-181.1V6160.5z M4320.8,6110.5
					v392.8h417.8c103.5,0,183.5-22.6,239.4-64.4s83.3-99.9,83.3-175c0-49.9-14.1-91.7-39.4-125.1c-8.4-10.8-16.5-18.9-27.4-27.4
					h-673.7L4320.8,6110.5L4320.8,6110.5z M3193.6,6110.5v392.8H3848v-183.5h-426.2v-153.7h361.8v-55.9L3193.6,6110.5L3193.6,6110.5
					z M1913.8,6110.5v392.8h1104.7v-392.8h-228.6v203.6h-211.7v-203.6h-228.6v203.6h-214.1v-203.6H1913.8z M1038.9,6110.5
					l-170.2,392.8h237l64.4-161.8h345.3l64.4,161.8h239.4l-170.2-392.8h-225l22.6,55.9H1238l22.6-55.9H1038.9z M0.9,6110.5v392.8
					h231v-326h314.3v326h231v-392.8H0.9z"/>
			</g>
			<g>
				<path fill="none" stroke="#29FD2F" stroke-width="26" stroke-miterlimit="10" d="M9309.7,5555.6c6,55.9,18.9,105.9,41.8,150.1
					c31,66.8,72.5,116.7,128.4,150.1c55.9,33.4,116.7,49.9,186.8,49.9c70.1,0,130.8-16.5,186.8-49.9s97.8-83.3,128.4-150.1
					c18.9-43.9,33.4-95.3,41.8-150.1h-231c-6,41.8-14.1,74.9-27.4,99.9c-22.6,39.4-52.3,58.3-91.7,58.3c-39.4,0-69.2-18.9-95.3-58.3
					c-14.1-25-25-58.3-27.4-99.9H9309.7z M8797.8,5555.6l-195.2,186.8v147.7h634.6v-189.2h-314.3l153.7-145.3c0,0,0-2.4,2.4-2.4
					h-280.9v2.4H8797.8z M7820.6,5555.6c6,55.9,18.9,105.9,41.8,150.1c31,66.8,72.5,116.7,128.4,150.1
					c55.9,33.4,116.7,49.9,186.8,49.9c69.2,0,130.8-16.5,186.8-49.9s97.8-83.3,128.4-150.1c18.9-43.9,33.4-95.3,41.8-150.1h-231
					c-6,41.8-14.1,74.9-27.4,99.9c-22.6,39.4-52.3,58.3-91.7,58.3s-69.2-18.9-95.3-58.3c-14.1-25-25-58.3-27.4-99.9H7820.6z
					 M7311.1,5555.6l-195.2,186.8v147.7h634.6v-189.2h-314.3l153.7-145.3c0,0,0-2.4,2.4-2.4h-280.9v2.4H7311.1z M6042.2,5555.6
					v336.9h654.8V5709h-426.2v-153.7L6042.2,5555.6L6042.2,5555.6z M5145.6,5555.6c8.4,49.9,25,97.8,49.9,141.7
					c39.4,66.8,91.7,116.7,161.8,155.8c66.8,35.8,145.3,55.9,231,55.9c74.9,0,141.7-14.1,200-41.8c60.8-27.4,108.3-66.8,150.1-116.7
					l-147.7-136.8c-52.3,66.8-116.7,97.8-191.6,97.8c-43.9,0-83.3-10.8-120.3-31c-33.4-18.9-60.8-47.5-80.9-83.3
					c-6-14.1-10.8-27.4-16.5-41.8L5145.6,5555.6L5145.6,5555.6z M4320.8,5555.6v336.9h417.8c103.5,0,183.5-22.6,239.4-64.4
					s83.3-99.9,83.3-175c0-35.8-8.4-69.2-18.9-97.8h-268c35.8,10.8,52.3,35.8,52.3,77.3c0,58.3-33.4,85.7-99.9,85.7h-181.1v-166.6
					h-225V5555.6z M3193.6,5555.6v336.9H3848V5709h-426.2v-153.7L3193.6,5555.6L3193.6,5555.6z M1913.8,5555.6v336.9h1104.7v-336.9
					h-228.6v147.7h-211.7v-147.7h-228.6v147.7h-214.1v-147.7H1913.8z M1013.9,5555.6l-144.1,336.9h237l64.4-161.8h345.3l64.4,161.8
					h239.4L1675,5555.6H1013.9z M545.9,5892.5h231v-336.9h-231V5892.5z M0.9,5892.5h231v-336.9H0.9V5892.5z"/>
			</g>
			<g>
				<path fill="none" stroke="#29FD2F" stroke-width="26" stroke-miterlimit="10" d="M776.9,3559.4V3175h-231v314.3h-314V3175H0.9
					v384.4H776.9L776.9,3559.4z M1623.3,3559.4L1456.6,3175H1228l-164.2,384.4h216.6l58.3-153.7l58.3,153.7H1623.3z M2141.2,3175.9
					h-228.6v383.5h228.6V3175.9z M2581.5,3175.9h-228.6v383.5h228.6V3175.9z M3018.5,3175.9h-228.6v383.5h228.6V3175.9z
					 M3422.2,3359.4h411.8v-183.5h-640.3v383.5h592.8v-60.8h-361.8v-139.3H3422.2L3422.2,3359.4z M4792.2,3428.6
					c0,55.9-33.4,83.3-97.8,83.3h-147.7v-164.2h147.7C4761.2,3345,4792.2,3373.5,4792.2,3428.6 M4998.2,3501.1
					c18.9-31,27.4-66.8,27.4-108.3c0-69.2-27.4-122.7-80.9-161.8c-53.5-39.1-130.8-55.9-228.6-55.9h-395.2v384.4h621.4
					C4964.8,3546.2,4983.7,3526,4998.2,3501.1 M5791,3454.7l147.7-136.8c-39.4-49.9-89.3-89.3-150.1-116.7
					c-60.8-27.4-128.4-41.8-200-41.8c-85.7,0-161.8,18.9-231,55.9c-66.8,35.8-122.7,89.3-161.8,155.8
					c-33.4,55.9-52.3,120.3-55.9,191.6h233.4c2.4-33.4,10.8-64.4,27.4-91.7c18.9-35.8,43.9-64.4,80.9-83.3
					c33.4-18.9,74.9-31,120.3-31C5674.3,3357,5738.4,3386.8,5791,3454.7 M6269.5,3359.4h411.8v-183.5h-640.3v383.5h590.4v-60.8
					h-361.8V3359.4L6269.5,3359.4z M7697.9,3542.6c18.9-39.4,27.4-83.3,27.4-128.4c0-49.9-14.1-95.3-39.4-133.2
					c-27.4-39.4-64.4-69.2-111.9-89.3c-47.5-18.9-103.5-31-164.2-31c-77.3,0-147.7,16.5-203.6,47.5c-58.3,31-103.5,74.9-133.2,128.4
					l172.6,97.8c16.5-25,35.8-47.5,60.8-60.8c25-13.2,52.3-22.6,83.3-22.6c33.4,0,60.8,8.4,77.3,22.6c16.5,14.1,27.4,35.8,27.4,64.4
					c0,18.9-6,41.8-14.1,60.8c-8.4,16.5-25,39.4-47.5,60.8H7691C7693.1,3554.6,7695.5,3548.6,7697.9,3542.6 M8533.4,3559.4
					c-2.4-74.9-16.5-141.7-43.9-200c-31-66.8-72.5-116.7-128.4-150.1c-55.9-33.4-116.7-49.9-186.8-49.9
					c-69.2,0-130.8,16.5-186.8,49.9s-97.7,83.3-128.4,150.1c-27.4,58.3-41.8,125.1-43.9,200h231c2.4-66.8,14.1-116.7,33.4-150.1
					c22.6-39.4,52.3-58.3,95.3-58.3c39.4,0,69.2,18.9,91.7,58.3c18.9,33.4,31,83.3,33.4,150.1H8533.4z M9184.6,3542.6
					c18.9-39.4,27.4-83.3,27.4-128.4c0-49.9-14.1-95.3-39.4-133.2c-27.4-39.4-64.4-69.2-111.9-89.3c-47.5-18.9-103.5-31-164.2-31
					c-77.3,0-147.7,16.5-203.6,47.5c-58.3,31-103.5,74.9-133.2,128.4l172.6,97.8c16.5-25,35.8-47.5,60.8-60.8
					c25-14.1,52.3-22.6,83.3-22.6c33.4,0,60.8,8.4,77.3,22.6s27.4,35.8,27.4,64.4c0,18.9-6,41.8-14.1,60.8
					c-8.4,16.5-25,39.4-47.5,60.8h258.4C9178.9,3554.6,9182.2,3548.6,9184.6,3542.6 M10020.4,3559.4c-2.4-74.9-16.5-141.7-43.9-200
					c-31-66.8-72.5-116.7-128.4-150.1s-116.7-49.9-186.8-49.9c-69.2,0-130.8,16.5-186.8,49.9s-97.8,83.3-128.4,150.1
					c-27.4,58.3-41.8,125.1-43.9,200h231c2.4-66.8,14.1-116.7,33.4-150.1c22.6-39.4,52.3-58.3,95.3-58.3c39.4,0,69.2,18.9,91.7,58.3
					c18.9,33.4,31,83.3,33.4,150.1H10020.4z"/>
			</g>
			<g>
				<path fill="none" stroke="#29FD2F" stroke-width="26" stroke-miterlimit="10" d="M776.9,4272.5V3788h-231v314.3h-314V3788H0.9
					v484.5H776.9z M1665.1,4272.5L1456.6,3788H1228l-208.4,484.5h222.6l97.8-249.9l97.7,249.9H1665.1z M2141.2,3788h-228.6v484.5
					h228.6V3788z M2581.5,3788h-228.6v484.5h228.6V3788z M3018.5,3788h-228.6v484.5h228.6V3788z M3422.2,3971.2h411.8v-183.5h-640.3
					v484.5h592.8v-161.8h-361.8v-139.3L3422.2,3971.2L3422.2,3971.2z M4792.2,4041.5c0,55.9-33.4,83.3-97.8,83.3h-147.7v-164.2
					h147.7C4761.2,3958.2,4792.2,3985.6,4792.2,4041.5 M4998.2,4114c18.9-31,27.4-66.8,27.4-108.3c0-69.2-27.4-122.7-80.9-161.8
					c-52.3-39.4-130.8-55.9-228.6-55.9h-395.2v484.5h709.5c-2.4-2.4-2.4-6-6-8.4c-25-33.4-60.8-58.3-111.9-74.9
					C4950.4,4170,4977.7,4143.8,4998.2,4114 M5791,4066.5l147.7-136.9c-39.4-49.9-89.3-89.3-150.1-116.7
					c-60.8-27.4-128.4-41.8-200-41.8c-85.7,0-161.8,18.9-231,55.9c-66.8,35.8-122.7,89.3-161.8,155.8
					c-39.4,66.8-58.3,141.7-58.3,225c0,22.6,2.4,43.9,6,64.4h237c-6-18.9-6-41.8-6-64.4c0-47.5,8.4-89.3,27.4-125.1
					c18.9-35.8,43.9-64.4,80.9-83.3c33.4-18.9,74.9-31,120.3-31C5674.3,3966.4,5738.4,3999.7,5791,4066.5 M6269.5,3971.2h411.8
					v-183.5h-640.3v484.5h590.4v-161.8h-361.8V3971.2L6269.5,3971.2z M7697.9,4155.8c18.9-39.4,27.4-83.3,27.4-128.4
					c0-49.9-14.1-95.3-39.4-133.2c-27.4-39.4-64.4-69.2-111.9-89.3c-47.5-18.9-103.5-31-164.2-31c-77.3,0-147.7,16.5-203.6,47.5
					c-58.3,31-103.5,74.9-133.2,128.4l172.6,97.8c16.5-25,35.8-47.5,60.8-60.8c25-14.1,52.3-22.6,83.3-22.6
					c33.4,0,60.8,8.4,77.3,22.6c16.5,14.1,27.4,35.8,27.4,64.4c0,18.9-6,41.8-14.1,60.8c-10.8,18.9-31,43.9-58.3,72.5l-91.7,85.7
					H7611C7654,4228.3,7683.8,4189.2,7697.9,4155.8 M8533.4,4272.5c2.4-18.9,2.4-41.8,2.4-64.4c0-89.3-16.5-166.6-47.5-233.4
					s-72.5-116.7-128.4-150.1c-55.9-33.4-116.7-49.9-186.8-49.9c-69.2,0-130.8,16.5-186.8,49.9c-55.9,33.4-97.8,83.3-128.4,150.1
					c-31,66.8-47.5,145.3-47.5,233.4c0,22.6,0,43.9,2.4,64.4h231c-2.4-18.9-2.4-41.8-2.4-64.4c0-83.3,10.8-145.3,33.4-183.5
					c22.6-39.4,52.3-58.3,95.3-58.3c39.4,0,69.2,18.9,91.7,58.3c22.6,39.4,33.4,99.9,33.4,183.5c0,22.6,0,43.9-2.4,64.4H8533.4z
					 M9184.6,4155.8c18.9-39.4,27.4-83.3,27.4-128.4c0-49.9-14.1-95.3-39.4-133.2c-27.4-39.4-64.4-69.2-111.9-89.3
					c-47.5-18.9-103.5-31-164.2-31c-77.3,0-147.7,16.5-203.6,47.5c-58.3,31-103.5,74.9-133.2,128.4l172.6,97.8
					c16.5-25,35.8-47.5,60.8-60.8c25-14.1,52.3-22.6,83.3-22.6c33.4,0,60.8,8.4,77.3,22.6c16.5,14.1,27.4,35.8,27.4,64.4
					c0,18.9-6,41.8-14.1,60.8c-10.8,18.9-31,43.9-58.3,72.5l-91.7,85.7h280.9C9140.7,4228.3,9170.5,4189.2,9184.6,4155.8
					 M10020.4,4272.5c2.4-18.9,2.4-41.8,2.4-64.4c0-89.3-16.5-166.6-47.5-233.4s-72.5-116.7-128.4-150.1
					c-55.9-33.4-116.7-49.9-186.8-49.9c-69.2,0-130.8,16.5-186.8,49.9c-55.9,33.4-97.8,83.3-128.4,150.1
					c-31,66.8-47.5,145.3-47.5,233.4c0,22.6,0,43.9,2.4,64.4h231c-2.4-18.9-2.4-41.8-2.4-64.4c0-83.3,10.8-145.3,33.4-183.5
					c22.6-39.4,52.3-58.3,95.3-58.3c39.4,0,69.2,18.9,91.7,58.3c22.6,39.4,33.4,99.9,33.4,183.5c0,22.6,0,43.9-2.4,64.4H10020.4z"/>
			</g>
			<g>
				<path fill="#29FD2F" d="M9663.1,5158c-39.4,0-69.2-18.9-95.3-58.3c-22.6-39.4-33.4-99.9-33.4-183.5
					c0-83.6,10.8-145.3,33.4-183.5c22.6-39.4,52.3-58.3,95.3-58.3c39.4,0,69.2,18.9,91.7,58.3c22.6,39.4,33.4,99.9,33.4,183.5
					c0,83.6-10.8,145.3-33.4,183.5C9733.5,5137.9,9702.5,5158,9663.1,5158 M9663.1,5352c69.2,0,130.8-16.5,186.8-49.9
					s97.8-83.3,128.4-150.1c31-66.8,47.5-145.3,47.5-233.4s-16.5-166.6-47.5-233.4c-31-66.8-72.5-116.7-128.4-150.1
					s-116.7-49.9-186.8-49.9c-69.2,0-130.8,16.5-186.8,49.9c-55.9,33.4-97.8,83.3-128.4,150.1c-30.7,66.8-47.5,145.3-47.5,233.4
					s16.5,166.6,47.5,233.4c31,66.8,72.5,116.7,128.4,150.1C9532.3,5335.5,9594.2,5352,9663.1,5352 M8922.9,5146.3l153.7-145.3
					c55.9-49.9,91.7-97.8,111.9-136.9c18.9-39.4,27.4-83.3,27.4-128.4c0-49.9-14.1-95.3-39.4-133.2c-27.4-39.4-64.4-69.2-111.9-89.3
					c-47.5-18.9-103.5-31-164.2-31c-77.3,0-147.7,16.5-203.6,47.5c-58.3,31-103.5,74.9-133.2,128.4l172.6,97.8
					c16.5-25,35.8-47.5,60.8-60.8c25-14.1,52.3-22.6,83.3-22.6c33.4,0,60.8,8.4,77.3,22.6c16.5,14.1,27.4,35.8,27.4,64.4
					c0,18.9-6,41.8-14.1,60.8c-10.8,18.9-31,43.9-58.3,72.5l-305.9,292.9v147.7h634.6v-189.2h-320.3v2.4h2.1V5146.3z M8176.4,5158
					c-39.4,0-69.2-18.9-95.3-58.3c-22.6-39.4-33.4-99.9-33.4-183.5c0-83.6,10.8-145.3,33.4-183.5c22.6-39.4,52.3-58.3,95.3-58.3
					c39.4,0,69.2,18.9,91.7,58.3c22.6,39.4,33.4,99.9,33.4,183.5c0,83.6-10.8,145.3-33.4,183.5
					C8246.8,5137.9,8215.8,5158,8176.4,5158 M8176.4,5352c69.2,0,130.8-16.5,186.8-49.9s97.8-83.3,128.4-150.1
					c31-66.8,47.5-145.3,47.5-233.4s-16.5-166.6-47.5-233.4c-31-66.8-72.5-116.7-128.4-150.1s-116.7-49.9-186.8-49.9
					c-69.2,0-130.8,16.5-186.8,49.9c-55.9,33.4-97.7,83.3-128.4,150.1c-30.7,66.8-47.5,145.3-47.5,233.4s16.5,166.6,47.5,233.4
					c31,66.8,72.5,116.7,128.4,150.1C8043.2,5335.5,8107.5,5352,8176.4,5352 M7435.9,5146.3l153.7-145.3
					c55.9-49.9,91.7-97.8,111.9-136.9c18.9-39.4,27.4-83.3,27.4-128.4c0-49.9-14.1-95.3-39.4-133.2c-27.4-39.4-64.4-69.2-111.9-89.3
					c-47.5-18.9-103.5-31-164.2-31c-77.3,0-147.7,16.5-203.6,47.5c-58.3,31-103.5,74.9-133.2,128.4l172.6,97.8
					c16.5-25,35.8-47.5,60.8-60.8c25-14.1,52.3-22.6,83.3-22.6c33.4,0,60.8,8.4,77.3,22.6c16.5,14.1,27.4,35.8,27.4,64.4
					c0,18.9-6,41.8-14.1,60.8c-10.8,18.9-31,43.9-58.3,72.5l-305.9,292.9v147.7h634.6v-189.2h-320.3v2.4h2.1V5146.3z M6269.5,5152
					v-153.7h361.8v-178.7h-361.8v-141.4h411.8v-183.5h-640.3v840.3h654.8v-183.5L6269.5,5152L6269.5,5152z M5585,5352
					c74.9,0,141.7-14.1,200-41.8c58.3-27.4,108.3-66.8,150.1-116.7l-145.3-136.9c-52.3,66.8-116.7,97.8-191.6,97.8
					c-43.9,0-83.3-10.8-120.3-31c-33.4-18.9-60.8-47.5-80.9-83.3c-20.2-35.8-27.4-77.3-27.4-125.1c0-47.5,8.4-89.3,27.4-125.1
					c18.9-35.8,43.9-64.4,80.9-83.3c33.4-18.9,74.9-31,120.3-31c74.9,0,139.3,33.4,191.6,97.8l147.7-136.9
					c-39.4-49.9-89.3-89.3-150.1-116.7s-128.4-41.8-200-41.8c-85.7,0-161.8,18.9-231,55.9c-66.8,35.8-122.7,89.3-161.8,155.8
					c-39.4,66.8-58.3,141.7-58.3,225c0,83.3,18.9,158.2,58.3,225c39.4,66.8,91.7,116.7,161.8,155.8
					C5424.4,5333.1,5501.7,5352,5585,5352 M4730.2,5166.4h-181.1v-172.6h181.1c66.8,0,99.9,27.4,99.9,85.7
					C4830.4,5135.4,4797,5166.4,4730.2,5166.4 M4549.4,4667.8h147.7c64.4,0,97.8,27.4,97.8,83.3c0,55.9-33.4,83.3-97.8,83.3h-147.7
					V4667.8z M4914.9,4898.4c35.8-18.9,64.4-41.8,83.3-74.9c18.9-31,27.4-66.8,27.4-108.3c0-69.2-27.4-122.7-80.9-161.8
					c-52.3-39.4-130.8-55.9-228.6-55.9h-395.2v837.9h417.8c103.5,0,183.5-22.6,239.4-64.4s83.3-99.9,83.3-175
					c0-49.9-14.1-91.7-39.4-125.1C5000.6,4937.8,4964.8,4912.9,4914.9,4898.4 M3422.2,5152v-153.7H3784v-178.7h-361.8v-141.4h411.8
					v-183.5h-640.3v840.3H3848v-183.5L3422.2,5152L3422.2,5152z M2793.5,4497.5v648.8h-211.7v-648.8h-228.6v648.8h-214.1v-648.8
					h-228.6v837.9h1104.4v-837.9H2793.5z M1236.5,4998.6l105.9-268l105.9,268H1236.5z M1579.3,5335.5h239.4l-361.8-837.9h-228.6
					l-358.2,837.9h237l64.4-161.8h345.3L1579.3,5335.5z M545.9,4497.5v314.3h-314v-314.3H0.9v837.9h231v-326h314.3v326h231v-837.9
					H545.9z"/>
			</g>
		</g>
	</g>
</g>
<path fill="#29FD2F" d="M1170.3,5173.6h345.3l63.2,161.8h239.4l-361.8-837.9h-228.6l-358.2,837.9h237L1170.3,5173.6z M1341.7,4730.6
	l105.9,268h-211.7L1341.7,4730.6z"/>
<path fill="#29FD2F" d="M8362.6,4535.4c-55.9-33.4-116.7-49.9-186.8-49.9c-69.2,0-130.8,16.5-186.8,49.9s-97.8,83.3-128.4,150.1
	c-31,66.8-47.5,145.3-47.5,233.4s16.5,166.6,47.5,233.4c31,66.8,72.5,116.7,128.4,150.1c53.5,33.4,117.9,49.9,186.8,49.9
	c69.2,0,130.8-16.5,186.8-49.9s97.8-83.3,128.4-150.1c31-66.8,47.5-145.3,47.5-233.4s-16.5-166.6-47.5-233.4
	C8460,4618.7,8418.5,4568.8,8362.6,4535.4z M8267.2,5099.7c-21.4,38.2-52.3,58.3-91.7,58.3s-69.2-18.9-95.3-58.3
	c-22.6-39.4-33.4-99.9-33.4-183.5c0-83.3,10.8-145.3,33.4-183.5c22.6-39.4,52.3-58.3,95.3-58.3c39.4,0,69.2,18.9,91.7,58.3
	c22.6,39.4,33.4,99.9,33.4,183.5C8300.6,4999.8,8289.8,5061.8,8267.2,5099.7z"/>
<path fill="#29FD2F" d="M7706.9,4850c14.7-35.8,21.1-74.6,21.1-114.6c0-43-10.5-82.4-29.5-117c5.4,70.7,8.4,142,8.4,214.1
	C7706.9,4838.6,7706.9,4844.3,7706.9,4850z"/>
<path fill="#29FD2F" d="M8922,5146.3h-2.4v-2.4h4.8l151-142.9c55.9-49.9,91.7-97.8,111.9-136.9c18.9-39.4,27.4-83.3,27.4-128.4
	c0-49.9-14.1-95.3-39.4-133.2c-27.4-39.4-64.4-69.2-111.9-89.3c-47.5-18.9-103.5-31-164.2-31c-77.3,0-147.7,16.5-203.6,47.5
	c-58.3,31-103.5,74.9-133.2,128.4l172.6,97.8c16.5-25,35.8-47.5,60.8-60.8c25-14.1,52.3-22.6,83.3-22.6c33.4,0,60.8,8.4,77.3,22.6
	c16.5,14.1,27.4,35.8,27.4,64.4c0,18.9-6,41.8-14.1,60.8c-10.8,18.9-31,43.9-58.3,72.5l-305.9,292.9v147.7h634.6v-189.2h-315.2
	L8922,5146.3z"/>
<path fill="#29FD2F" d="M7660.6,5333.1h92.6v-189.2h-63.8C7681.9,5207.6,7672.3,5270.8,7660.6,5333.1z"/>
<polygon fill="#29FD2F" points="545.3,4811.8 231,4811.8 231,4497.5 0,4497.5 0,5335.5 231,5335.5 231,5009.4 545.3,5009.4 
	545.3,5335.5 776.3,5335.5 776.3,4497.5 545.3,4497.5 "/>
<path fill="#29FD2F" d="M2137.9,5146.3v-648.8h-228.6v837.9h462c-11.7-62.3-21.4-125.4-28.9-189.2L2137.9,5146.3L2137.9,5146.3z"/>
<path fill="#29FD2F" d="M9475.4,5302.1c55.9,33.4,117.9,49.9,186.8,49.9s130.8-16.5,186.8-49.9s97.8-83.3,128.4-150.1
	c31-66.8,47.5-145.3,47.5-233.4s-16.5-166.6-47.5-233.4c-31-66.8-72.5-116.7-128.4-150.1s-116.7-49.9-186.8-49.9
	c-69.2,0-130.8,16.5-186.8,49.9c-55.9,33.4-97.8,83.3-128.4,150.1c-31,66.8-47.5,145.3-47.5,233.4s16.5,166.6,47.5,233.4
	C9378,5218.8,9419.5,5268.7,9475.4,5302.1z M9567.2,4733c22.6-39.4,52.3-58.3,95.3-58.3c39.4,0,69.2,18.9,91.7,58.3
	c22.6,39.4,33.4,99.9,33.4,183.5c0,83.3-10.8,145.3-33.4,183.5c-21.4,38.2-52.3,58.3-91.7,58.3s-69.2-18.9-95.3-58.3
	c-22.6-39.4-33.4-99.9-33.4-183.5C9533.8,4833.2,9544.6,4771.2,9567.2,4733z"/>
</svg>
